<svg width="290" height="165" viewBox="0 0 290 165" fill="none" xmlns="http://www.w3.org/2000/svg">
<path d="M285 44.8689C285 28.9376 269.33 16.0227 250 16.0227C230.67 16.0227 215 28.9376 215 44.8689C237.985 50.9379 253.267 54.7204 285 62.1766C285 78.1079 269.33 91.0227 250 91.0227C230.67 91.0227 215 78.1079 215 62.1766" stroke="#EF8354" stroke-width="10"/>
<path d="M242.742 44.5604C236.423 44.0172 230.927 42.4712 226.881 40.3857C221.541 37.634 220 34.723 220 32.8977C220 31.0724 221.541 28.1615 226.881 25.4097C230.927 23.3242 236.423 21.7783 242.742 21.2351V44.5604Z" fill="#EF8354" stroke="#EF8354" stroke-width="10"/>
<path d="M252.742 82.0604C259.061 81.5172 264.557 79.9712 268.603 77.8857C273.942 75.134 275.484 72.223 275.484 70.3977C275.484 68.5724 273.942 65.6615 268.603 62.9097C264.557 60.8242 259.061 59.2783 252.742 58.7351V82.0604Z" fill="#EF8354" stroke="#EF8354" stroke-width="10"/>
<circle cx="40" cy="56.0227" r="35" stroke="#EF8354" stroke-width="10"/>
<path d="M81 119.023C81 141.114 63.9868 159.023 43 159.023C22.0132 159.023 5 141.114 5 119.023" stroke="#EF8354" stroke-width="10"/>
<path d="M35 90.6683C18.0385 88.2421 5 73.6551 5 56.0227C5 38.3904 18.0385 23.8033 35 21.3772V90.6683Z" fill="#EF8354" stroke="#EF8354" stroke-width="10"/>
<path d="M81 11.0227L80.989 96.0228" stroke="#EF8354" stroke-width="10"/>
<path d="M143 85.5309C125.848 83.2416 113 69.3448 113 53.0114C113 36.678 125.848 22.7811 143 20.4918V85.5309Z" fill="#EF8354" stroke="#EF8354" stroke-width="10"/>
<path d="M188 53.0114C188 73.9153 170.091 90.8613 148 90.8613C125.909 90.8613 108 73.9153 108 53.0114C108 32.1074 125.909 15.1615 148 15.1615" stroke="#EF8354" stroke-width="10"/>
<path d="M172.092 22.7967C154.457 10.2064 129.374 13.5276 116.069 30.2147C102.763 46.9018 106.273 70.6358 123.908 83.226C141.543 95.8163 166.626 92.4951 179.931 75.808" stroke="#EF8354" stroke-width="10"/>
</svg>
