<svg width="290" height="165" viewBox="0 0 290 165" fill="none" xmlns="http://www.w3.org/2000/svg">
<path d="M285 44.8689C285 28.9376 269.33 16.0227 250 16.0227C230.67 16.0227 215 28.9376 215 44.8689C237.985 50.9379 253.267 54.7204 285 62.1766C285 78.1079 269.33 91.0227 250 91.0227C230.67 91.0227 215 78.1079 215 62.1766" stroke="#191B24" stroke-width="10"/>
<path d="M242.742 44.5604C236.423 44.0172 230.927 42.4712 226.881 40.3857C221.541 37.634 220 34.723 220 32.8977C220 31.0724 221.541 28.1615 226.881 25.4097C230.927 23.3242 236.423 21.7783 242.742 21.2351V44.5604Z" fill="#191B24" stroke="#191B24" stroke-width="10"/>
<path d="M253.742 81.5377C260.061 80.9944 265.557 79.4485 269.603 77.363C274.942 74.6113 276.484 71.7003 276.484 69.875C276.484 68.0497 274.942 65.1387 269.603 62.387C265.557 60.3015 260.061 58.7556 253.742 58.2123V81.5377Z" fill="#191B24" stroke="#191B24" stroke-width="10"/>
<circle cx="40" cy="56.0227" r="35" stroke="#191B24" stroke-width="10"/>
<path d="M81 119.023C81 141.114 63.9868 159.023 43 159.023C22.0132 159.023 5 141.114 5 119.023" stroke="#191B24" stroke-width="10"/>
<path d="M35 87.7145C17.652 85.7023 5 73.2338 5 56.0227C5 46.4459 8.83098 38.963 14.9437 33.7955C20.0875 29.4471 27.0282 26.5993 35 25.7592V87.7145Z" fill="#191B24" stroke="#191B24" stroke-width="10"/>
<path d="M81 11.0227L80.989 96.0228" stroke="#191B24" stroke-width="10"/>
<path d="M143 84.2005C125.667 82.0969 113 69.1519 113 53.0114C113 36.9393 125.6 24.3279 143 22.2889V84.2005Z" fill="#191B24" stroke="#191B24" stroke-width="10"/>
<path d="M188 53.0114C188 73.9153 170.091 90.8613 148 90.8613C125.909 90.8613 108 73.9153 108 53.0114C108 32.1074 125.909 15.1615 148 15.1615" stroke="#191B24" stroke-width="10"/>
<path d="M172.092 22.7967C154.457 10.2064 129.374 13.5276 116.069 30.2147C102.763 46.9018 106.273 70.6358 123.908 83.226C141.543 95.8163 166.626 92.4951 179.931 75.808" stroke="#191B24" stroke-width="10"/>
</svg>
